<svg width="100" height="100" xmlns="http://www.w3.org/2000/svg">
    <g fill="none" fill-rule="nonzero">
        <circle fill="#2B374C" cx="50" cy="50" r="39.829"/>
        <path d="M99.868 50c0-10.04-3.127-19.914-8.723-28.308V9.512c0-.328-.329-.657-.658-.657H78.308a49.57 49.57 0 0 0-56.287 0H9.842c-.165 0-.33 0-.494.164-.164.165-.164.33-.164.494v12.014a49.79 49.79 0 0 0 0 56.781v12.015c0 .329.329.658.658.658h12.18c17.116 11.685 39.499 11.52 56.615-.165h12.015c.329 0 .658-.329.658-.823V77.98c5.596-8.065 8.558-17.94 8.558-27.979zM6.88 50C6.88 26.136 26.136 6.88 50 6.88c23.864 0 43.12 19.256 43.12 43.12 0 23.864-19.256 43.12-43.12 43.12C26.136 93.12 6.88 73.864 6.88 50z" fill="#F4BF2A"/>
        <path d="M21.363 26.63h16.293a30.78 30.78 0 0 0-.493 5.595c.658 7.242 5.43 27.32 5.43 27.32l7.736-31.27 7.9 30.612s4.773-26.991 4.773-28.801c-.165-1.317-.823-2.634-1.975-3.457h17.281c-2.304 2.14-3.95 4.773-4.937 7.9-1.482 5.925-6.748 35.88-6.748 37.69a10.894 10.894 0 0 0 1.975 5.43h-16.13c.33-1.48.494-2.962.494-4.443 0-2.798-2.468-15.8-2.468-15.8s-3.292 13.496-3.292 15.965c0 1.48.33 2.962.988 4.279H31.896s3.127-2.304 3.127-4.444c-.33-6.09-8.887-37.854-9.546-40.323a10.1 10.1 0 0 0-4.114-6.254z" fill="#F4BF2A"/>
    </g>
</svg>
