<svg width="100" height="205" xmlns="http://www.w3.org/2000/svg">
    <path d="M85 205c8.2 0 15-6.7 15-14.95V14.95C100 6.75 93.3 0 85.05 0h-70.1C6.7 0 0 6.7 0 14.95v175.1C0 198.3 6.8 205 15 205h70zM63 6.5a1.9 1.9 0 1 1 0 3.8 1.9 1.9 0 1 1 0-3.8zM41.4 8.35c0-.2.05-.9.95-.9h13.7c.9 0 .95.7.95.9v.15c0 .2-.05.9-.95.9h-13.7c-.9 0-.95-.7-.95-.9v-.15zM69.9 15c3.65 0 4.8-2.2 5.1-4.15.05-.3 0-3.9 0-4.05.15-1.25 1.45-1.7 2.2-1.8H86c4.95 0 9 4.05 9 9v177c0 4.95-4.05 9-9 9H14c-4.95 0-9-4.05-9-9V14c0-4.95 4.05-9 9-9h8.8c.75.1 2.05.55 2.2 1.8 0 .1-.05 3.75 0 4.05.35 1.95 1.5 4.15 5.1 4.15h39.8z" fill="#191F2B" fill-rule="nonzero"/>
</svg>
