<svg xmlns="http://www.w3.org/2000/svg" viewBox="0 0 24 24" fill="#f4bf2a">
    <path d="M11.953 2c-5.52 0-10 4.477-10 10s4.48 10 10 10c5.524 0 10-4.477 10-10s-4.476-10-10-10zM9.918 7.98a.5.5 0 0 1 .676-.18l.687.391c.242.137.324.45.184.692l-.492.851-1.547-.894zM3.953 13v-2h3.629l-1.18 2zm1.215 4.96c-.106.099-.238 0-.211-.116l.738-2.723L7.22 16zm.867-3.413l3.047-5.164 1.55.894-3.046 5.164zM9.641 13l1.18-2h2.581l1.192 2zm1.714-6.445a.5.5 0 0 1 .18-.692l.63-.36a.505.505 0 0 1 .679.18l3.465 5.837-1.497.855zm3.797 6.398l1.496-.855.915 1.52-1.497.855zm3.368 4.977c-.036.047-.137-.285-.36-.617-.402-.61-.945-.5-1.465-1.356-.093-.148-.402-.852 0-1.09.211-.125.907-.523.957-.531.352-.055.684.351.868.621.453.648.625 2.125 0 2.973zM17.762 13l-1.192-2h3.383v2z"/>
</svg>
