<svg fill="#fff" viewBox="0 0 30 30" xmlns="http://www.w3.org/2000/svg"><path d="m24 4h-18c-1.105 0-2 .895-2 2v18c0 1.105.895 2 2 2h18c1.105 0 2-.895 2-2v-18c0-1.105-.895-2-2-2zm-14.152 17.53c-.19.303-.515.47-.849.47-.181 0-.364-.049-.529-.152-.469-.293-.611-.91-.318-1.378l.27-.432c.173-.022.36-.038.578-.038.604 0 1.105.191 1.526.445zm-.848-2.53c-.552 0-1-.448-1-1s.448-1 1-1h1.321l3.5-5.6-1.169-1.87c-.292-.468-.15-1.085.318-1.378.468-.292 1.085-.149 1.378.318l.652 1.043.652-1.043c.293-.469.91-.612 1.378-.318.469.293.611.91.318 1.378l-4.669 7.47h3.187c.255.183.537.467.835.941.221.351.329.709.389 1.059zm12.848 1.47c.292.468.15 1.085-.318 1.378-.165.103-.348.152-.529.152-.333 0-.659-.167-.849-.47l-4.52-7.232c.08-.199.183-.413.336-.657.277-.441.632-.748 1.007-.968l2.704 4.327h1.321c.552 0 1 .448 1 1s-.448 1-1 1h-.071z" fill="#fff"/></svg>