<svg fill="#fff" viewBox="0 0 30 30" xmlns="http://www.w3.org/2000/svg"><path d="m7.6230469 3.2109375 10.3769531 10.3750005 2.677734-2.677735c-3.659-2.2199999-8.559671-5.1981092-10.7636715-6.5371092l-1.4765625-.8945313c-.261-.159-.5404531-.244625-.8144531-.265625zm-1.5839844 1.2421875c-.021.114-.0390625.2285625-.0390625.3515625v20.5039065c0 .086.0172969.166047.0292969.248047l10.5566411-10.556641zm16.3984375 7.523437-3.023438 3.023438 2.970704 2.970703c1.574-.954 2.664156-1.616453 2.785156-1.689453.535-.327.837125-.820375.828125-1.359375-.008-.529-.310219-1.001969-.824219-1.292969-.115-.066-1.190328-.715343-2.736328-1.652344zm-4.4375 4.4375-10.3457031 10.345704c.201-.035.40175-.094938.59375-.210938.266-.162 7.4519531-4.521766 12.3769531-7.509766z" fill="#fff"/></svg>