<svg height="100" viewBox="0 0 100 100" width="100" xmlns="http://www.w3.org/2000/svg"><g fill="none" fill-rule="evenodd"><circle cx="50" cy="50" fill="#2b374c" r="40"/><g fill="#f4bf2a"><path d="m100 50.1247479c0-10.0689865-3.1428571-19.9951505-8.7619048-28.4216783v-12.23512779c0-.3332525-.3333333-.66650501-.6666666-.66650501h-12.2380953c-17.0238095-11.73524907-39.5-11.73524907-56.5238095 0h-12.2142857c-.16666667 0-.33333334 0-.5.16662625-.16666667.16662626-.16666667.33325251-.16666667.49987876v12.06850159c-11.90476191 17.1863079-11.90476191 39.8236748 0 57.0099828v12.0685015c0 .3332525.33333333.666505.66666667.666505h12.2380952c17.1904762 11.7352493 39.6666667 11.5686233 56.8571429-.1666262h12.0714286c.3333333 0 .6666666-.3332525.6666666-.8331313v-12.0685016c5.5952381-8.0932752 8.5714286-17.9956354 8.5714286-28.0884257zm-93.38095238 0c0-23.9703769 19.33333338-43.29902241 43.30952378-43.29902241 23.9761905 0 43.3095238 19.32864551 43.3095238 43.29902241s-19.3333333 43.2990224-43.3095238 43.2990224c-23.9761904 0-43.30952378-19.3286455-43.30952378-43.2990224z" fill-rule="nonzero"/><path d="m20 28h17.1606994c-.3497086 1.7657993-.5245628 3.5548327-.5245628 5.4832714.6994171 7.0864312 5.7202331 26.7657992 5.7202331 26.7657992l8.143214-30.6226765 8.3430474 29.9953531s5.020816-26.4637546 5.020816-28.2295539c-.1748543-1.3011152-.8742714-2.5789963-2.0732722-3.3921933h18.2098251c-2.4229808 2.0910781-4.1715237 4.6700743-5.1956703 7.7369888-1.5487094 5.8085502-7.1190674 35.1533458-7.1190674 36.9423792.1748543 1.9284387.8742714 3.7174721 2.0732723 5.320632h-16.9858452c.3497086-1.4405204.5245629-2.9042751.5245629-4.3447955 0-2.7416357-2.5978351-15.4739777-2.5978351-15.4739777s-3.4721066 13.2202602-3.4721066 15.6366171c0 1.4405204.3497086 2.9042751 1.0491257 4.1821561h-17.1606994s3.2972523-2.2537175 3.2972523-4.3447955c-.3497086-5.9711896-9.367194-37.1050186-10.0666112-39.5213755-.549542-2.4163569-2.0982514-4.6700744-4.346378-6.133829z"/></g></g></svg>